<svg width="25" height="14" viewBox="0 0 25 14" fill="none" xmlns="http://www.w3.org/2000/svg">
<path d="M7.22926 10.7676L4.97536 9.59045C4.88639 9.54397 4.78856 9.52058 4.69072 9.52058C4.59289 9.52058 4.49536 9.54397 4.40608 9.59045L1.81252 10.9454C1.8064 10.9487 1.80365 10.949 1.80365 10.949C1.79815 10.949 1.78622 10.9405 1.78469 10.9353C1.78469 10.9353 1.78408 10.9326 1.78531 10.9259L2.2806 8.0563C2.31454 7.85914 2.2488 7.65803 2.1048 7.51859L0.0065289 5.48561C0.00163711 5.48075 0.00041416 5.47832 0.00041416 5.47832C-0.00142026 5.47315 0.00316579 5.45918 0.00775184 5.45614C0.00775184 5.45614 0.0101977 5.45462 0.016924 5.45371L2.91653 5.03508C3.11557 5.00622 3.288 4.88197 3.37697 4.70274L4.67391 2.09195C4.67697 2.08587 4.6791 2.08374 4.6791 2.08374C4.68338 2.0804 4.69837 2.0804 4.70265 2.08374C4.70265 2.08374 4.70479 2.08557 4.70784 2.09195L5.72687 4.14345L5.57705 4.16502C5.00777 4.24735 4.54366 4.6359 4.36603 5.17969C4.1884 5.72317 4.33362 6.30889 4.74576 6.70776L7.29468 9.17638L7.39925 9.78305L7.22926 10.7676ZM16.0241 9.24048L16.7224 13.2864C16.7478 13.4331 16.6643 13.5182 16.612 13.5558C16.5597 13.5935 16.4527 13.6461 16.32 13.5768L12.6631 11.6666C12.5741 11.6201 12.4763 11.5967 12.3785 11.5967C12.2806 11.5967 12.1831 11.6201 12.0938 11.6666L8.43692 13.5768C8.30423 13.6461 8.19691 13.5935 8.14494 13.5558C8.09296 13.5182 8.00919 13.4334 8.03457 13.2864L8.73287 9.24048C8.76681 9.04332 8.70107 8.84221 8.55707 8.70277L5.59846 5.8374C5.49114 5.7335 5.50857 5.61594 5.52844 5.55518C5.54832 5.49442 5.60396 5.389 5.75224 5.36774L9.84086 4.77747C10.0399 4.74861 10.2123 4.62436 10.3013 4.44512L12.1296 0.763766C12.196 0.630098 12.314 0.610352 12.3782 0.610352C12.4427 0.610352 12.5604 0.630401 12.6267 0.763766L14.455 4.44512C14.544 4.62436 14.7161 4.74861 14.9155 4.77747L19.0041 5.36774C19.1524 5.38931 19.208 5.49442 19.2279 5.55518C19.2478 5.61594 19.2652 5.7335 19.1579 5.8377L16.1996 8.70307C16.0556 8.84251 15.9901 9.04332 16.0241 9.24048ZM24.8724 5.47832C24.8724 5.47832 24.8712 5.48075 24.8663 5.48561L22.768 7.51798C22.624 7.65772 22.558 7.85853 22.5922 8.05569L23.0875 10.9253C23.0887 10.932 23.0881 10.9347 23.0881 10.9347C23.0863 10.9399 23.0744 10.9484 23.0692 10.9484C23.0692 10.9484 23.0664 10.9481 23.0603 10.9448L20.4667 9.58984C20.3778 9.54336 20.2799 9.51997 20.1821 9.51997C20.0843 9.51997 19.9867 9.54336 19.8975 9.58984L17.5381 10.8223L17.4161 10.1163L17.6017 9.0415L20.0121 6.70685C20.4239 6.30797 20.5695 5.72226 20.3918 5.17878C20.2142 4.63529 19.7501 4.24644 19.1808 4.16411L19.1386 4.15804L20.1653 2.09103C20.1683 2.08496 20.1705 2.08283 20.1705 2.08283C20.1748 2.07949 20.1897 2.07949 20.194 2.08283C20.194 2.08283 20.1962 2.08465 20.1992 2.09103L21.4962 4.70182C21.5851 4.88106 21.7573 5.00531 21.9566 5.03417L24.8562 5.4528C24.8629 5.45371 24.8654 5.45523 24.8654 5.45523C24.8697 5.45857 24.8739 5.47346 24.8724 5.47832Z" fill="white"/>
</svg>
