<?xml version="1.0" encoding="UTF-8"?><svg id="b" xmlns="http://www.w3.org/2000/svg" viewBox="0 0 16 13.75"><defs><style>.d{fill:#fff;}</style></defs><g id="c"><g><path class="d" d="M14.65,10.39c-.88,.9-2.13,1.61-3.59,2.03-.9,.26-1.85,.38-2.81,.4-.09,0-.17,.02-.25,.02-.07,0-.13,0-.19,0-.2,0-.39-.02-.59-.03-.1,0-.2-.01-.3-.03-.16-.02-.32-.02-.48-.04-1.55-.21-2.98-.74-4.1-1.51-1.12-.77-1.88-1.75-2.19-2.82-.06-.22-.09-.43-.12-.65-.07,.52-.03,1.05,.12,1.57,.31,1.07,1.07,2.05,2.19,2.82s2.54,1.29,4.1,1.51c1.55,.21,3.16,.1,4.62-.31,1.46-.42,2.71-1.12,3.59-2.03,.88-.9,1.35-1.97,1.35-3.06,0-.18-.01-.36-.04-.54-.09,.96-.53,1.88-1.31,2.68Z"/><path class="d" d="M8,0c-1.58,0-3.13,.32-4.44,.93C2.24,1.53,1.21,2.39,.61,3.4,0,4.4-.15,5.51,.15,6.57c.31,1.07,1.07,2.05,2.19,2.82,1.12,.77,2.54,1.29,4.1,1.51,1.55,.21,3.16,.1,4.62-.31,1.46-.42,2.71-1.12,3.59-2.03,.88-.9,1.35-1.97,1.35-3.06,0-1.46-.85-2.86-2.35-3.89C12.15,.58,10.12,0,8,0Zm0,10.08c-1.32,0-2.61-.27-3.7-.77-1.1-.5-1.95-1.22-2.46-2.06-.5-.84-.64-1.76-.38-2.65,.26-.89,.89-1.71,1.82-2.35,.93-.64,2.12-1.08,3.41-1.25,1.29-.18,2.63-.09,3.85,.26,1.22,.35,2.26,.93,2.99,1.69,.73,.75,1.12,1.64,1.12,2.55,0,1.22-.7,2.38-1.95,3.24-1.25,.86-2.94,1.34-4.71,1.34Z"/></g></g></svg>