<?xml version="1.0" encoding="UTF-8"?><svg id="b" xmlns="http://www.w3.org/2000/svg" viewBox="0 0 197.96 391.36"><defs><style>.d{fill:#fff;}</style></defs><g id="c"><path class="d" d="M168.05,220.1l-25.05-25.04,33.36-33.36c1.72-1.72,1.72-4.52,0-6.24l-37.06-37.05c-1.72-1.72-4.52-1.72-6.24,0l-33.36,33.36-17.84-17.84c-4.54-4.54-7.69-10.43-8.25-16.82-.69-7.87,2.06-15.39,7.57-20.89l51.62-51.62c1.72-1.72,1.72-4.52,0-6.24L95.75,1.29c-1.72-1.72-4.52-1.72-6.24,0L39.3,51.5c-15.5,15.5-25.55,35.95-26.86,57.83-1.52,25.35,7.66,49.44,25.44,67.22l40.17,40.16,47.58,47.59c6.81,6.81,11.4,15.75,12,25.37,.69,11.05-3.31,21.57-11.06,29.32-7.18,7.18-16.72,11.13-26.87,11.13s-19.69-3.96-26.87-11.13c-14.82-14.82-14.82-38.93,0-53.75h0s5.33-5.33,5.33-5.33c1.72-1.72,1.72-4.52,0-6.24l-37.05-37.06c-1.72-1.72-4.52-1.72-6.24,0l-5.33,5.33h0s0,0,0,0C-1.48,252.95-9.39,301.07,12.14,339.28c18.68,33.14,51.66,52.08,87.56,52.08,26.4,0,51.23-10.24,69.95-28.84,38.86-38.61,37.14-103.68-1.6-142.41Z"/></g></svg>