<?xml version="1.0" encoding="utf-8"?>
<!-- Generator: Adobe Illustrator 26.4.1, SVG Export Plug-In . SVG Version: 6.00 Build 0)  -->
<svg version="1.1" id="Layer_1" xmlns="http://www.w3.org/2000/svg" xmlns:xlink="http://www.w3.org/1999/xlink" x="0px" y="0px"
	 viewBox="0 0 1000 391.36" style="enable-background:new 0 0 1000 391.36;" xml:space="preserve">
<style type="text/css">
	.st0{fill:#FFFFFF;}
</style>
<path class="st0" d="M168.05,220.1L143,195.06l33.36-33.36c1.72-1.72,1.72-4.52,0-6.24L139.3,118.4c-1.72-1.72-4.52-1.72-6.24,0
	L99.7,151.76l-17.84-17.84c-4.54-4.54-7.69-10.43-8.25-16.82c-0.69-7.87,2.06-15.39,7.57-20.89l51.62-51.62
	c1.72-1.72,1.72-4.52,0-6.24L95.75,1.29c-1.72-1.72-4.52-1.72-6.24,0L39.3,51.5c-15.5,15.5-25.55,35.95-26.86,57.83
	c-1.52,25.35,7.66,49.44,25.44,67.22l40.17,40.16l47.58,47.59c6.81,6.81,11.4,15.75,12,25.37c0.69,11.05-3.31,21.57-11.06,29.32
	c-7.18,7.18-16.72,11.13-26.87,11.13c-10.15,0-19.69-3.96-26.87-11.13c-14.82-14.82-14.82-38.93,0-53.75l0,0l5.33-5.33
	c1.72-1.72,1.72-4.52,0-6.24L41.1,216.6c-1.72-1.72-4.52-1.72-6.24,0l-5.33,5.33l0,0l0,0c-31.01,31.01-38.92,79.14-17.39,117.34
	c18.68,33.14,51.66,52.08,87.56,52.08c26.4,0,51.23-10.24,69.95-28.84C208.51,323.91,206.78,258.84,168.05,220.1z"/>
<g>
	<path class="st0" d="M292.82,79.28c-9.88,9.17-14.81,21.85-14.81,38.05v19.19H249.4v35.23l28.61-0.05v150.3h44.77v-150.3h46.45
		v-35.18h-46.45v-12.79c0-15.56,7.85-23.34,23.56-23.34c8.52,0,17.5,1.07,26.93,3.2V70.01c-13.24-2.98-26.48-4.48-39.72-4.48
		C316.27,65.53,302.7,70.12,292.82,79.28z"/>
	<path class="st0" d="M471.56,132.68c-29.85,0-53.47,8.9-70.86,26.7c-17.39,17.8-26.09,41.84-26.09,72.11
		c0,30.49,8.08,53.83,24.24,70.03c16.16,16.2,39.05,24.3,68.67,24.3c29.4,0,52.56-8.79,69.51-26.38
		c16.94-17.59,25.41-41.83,25.41-72.75c0-30.06-7.86-53.24-23.56-69.55C523.17,140.84,500.73,132.68,471.56,132.68z M504.21,275.46
		c-8.31,11.83-20.09,17.75-35.34,17.75c-15.71,0-27.72-5.44-36.02-16.31c-8.3-10.87-12.45-26.97-12.45-48.29
		c0-19.19,4.26-34.54,12.79-46.05c8.53-11.51,20.2-17.27,35.01-17.27c15.71,0,27.71,5.11,36.02,15.35
		c8.3,10.23,12.45,25.16,12.45,44.77C516.67,246.95,512.51,263.63,504.21,275.46z"/>
	<path class="st0" d="M773.13,82.16h-30.29l-14.47,54.36h-28.61v0c-11.88,0-23.35,2.22-34.63,7.06c-10.5,4.5-19.16,9.15-29.29,16.28
		l-7.41-23.34h-35.01v185.47h44.77V187.68c14.3-6.67,36.76-15.94,61.56-15.94l28.61-0.05v101.37c0,35.18,16.83,52.76,50.49,52.76
		c13.46,0,26.03-1.71,37.7-5.12v-32.94c-6.51,1.07-12.34,1.6-17.5,1.6c-9.42,0-16.1-1.86-20.03-5.6
		c-3.93-3.73-5.89-10.18-5.89-19.34v-92.74h43.42v-35.18h-43.42V82.16z"/>
	<path class="st0" d="M1000,207.51c0-22.59-7.07-40.72-21.21-54.36c-14.14-13.64-33.21-20.47-57.22-20.47
		c-27.38,0-49.71,8.95-66.98,26.86c-17.28,17.91-25.92,41.15-25.92,69.71c0,30.27,8.92,53.94,26.76,70.99
		c17.84,17.06,42.8,25.58,74.9,25.58c25.13,0,47.35-3.41,66.65-10.23v-32.3c-20.2,5.12-37.93,7.67-53.19,7.67
		c-21.77,0-38.27-4.53-49.48-13.59c-11.22-9.06-17.73-23.07-19.52-42.05h123.2C999.33,227.65,1000,218.38,1000,207.51z
		 M876.13,204.31c4.93-26.43,19.53-39.65,43.76-39.65c23.78,0,36.02,13.22,36.69,39.65H876.13z"/>
</g>
</svg>
