<svg width="6" height="15" viewBox="0 0 6 15" fill="none" xmlns="http://www.w3.org/2000/svg">
<path fill-rule="evenodd" clip-rule="evenodd" d="M0.803218 7.67286V13.5714C0.803218 14.3607 1.4425 15 2.23179 15H4.45107C5.13821 15 5.72465 14.5021 5.83536 13.8236C5.93536 13.2143 5.62536 12.6207 5.08893 12.3478V6.42857C5.08893 5.63929 4.44965 5 3.66036 5H1.40393C0.704649 5 0.111793 5.51501 0.0139354 6.20786C-0.0732075 6.82501 0.255361 7.415 0.803218 7.67286ZM2.94608 0C1.76322 0 0.803218 0.96 0.803218 2.14286C0.803218 3.32571 1.76322 4.28571 2.94608 4.28571C4.12893 4.28571 5.08893 3.32571 5.08893 2.14286C5.08893 0.96 4.12893 0 2.94608 0Z" fill="white"/>
</svg>
