<?xml version="1.0" encoding="UTF-8"?><svg id="b" xmlns="http://www.w3.org/2000/svg" viewBox="0 0 1280 1280"><defs><style>.d{fill:#999;}.e{fill:#d9d9d9;}</style></defs><g id="c"><circle class="e" cx="640" cy="640" r="640"/><path class="d" d="M1074.21,568.91l-109.95-25.75c-6.96-24.61-16.45-48.11-28.26-70.13l59.99-98c4.47-7.3,3.43-16.81-2.51-22.91l-73.09-75.05c-5.94-6.1-15.2-7.17-22.31-2.58l-95.45,61.59c-21.45-12.13-44.34-21.87-68.3-29.02l-25.08-112.89c-1.87-8.41-9.15-14.38-17.56-14.38h-103.37c-8.4,0-15.69,5.97-17.56,14.38l-25.08,112.89c-23.97,7.15-46.86,16.89-68.3,29.02l-95.45-61.59c-7.11-4.59-16.37-3.52-22.31,2.58l-73.09,75.05c-5.94,6.1-6.98,15.61-2.51,22.91l59.99,98c-11.81,22.02-21.3,45.52-28.26,70.13l-109.94,25.75c-8.19,1.92-14,9.4-14,18.03v106.14c0,8.63,5.81,16.11,14,18.02l109.94,25.75c6.96,24.61,16.45,48.11,28.26,70.13l-59.99,98c-4.47,7.3-3.43,16.81,2.51,22.91l73.09,75.05c5.94,6.1,15.2,7.17,22.31,2.58l95.45-61.59c21.45,12.12,44.33,21.87,68.3,29.02l25.08,112.89c1.87,8.41,9.15,14.38,17.56,14.38h103.37c8.4,0,15.69-5.97,17.56-14.38l25.08-112.89c23.97-7.15,46.86-16.89,68.3-29.02l95.45,61.59c7.11,4.59,16.37,3.52,22.31-2.58l73.09-75.05c5.94-6.1,6.98-15.61,2.51-22.91l-59.99-98c11.81-22.02,21.3-45.52,28.26-70.13l109.95-25.75c8.19-1.92,14-9.4,14-18.02v-106.14c0-8.63-5.81-16.11-14-18.03Zm-434.21,282.55c-113.74,0-205.95-94.67-205.95-211.46s92.21-211.46,205.95-211.46,205.94,94.67,205.94,211.46-92.2,211.46-205.94,211.46Z"/></g></svg>