<svg width="40" height="40" viewBox="0 0 40 40" fill="none" xmlns="http://www.w3.org/2000/svg">
<circle cx="20" cy="20" r="20" fill="#D9D9D9"/>
<path d="M27.4464 9.29808C27.2161 8.90621 26.8883 8.58067 26.4948 8.35318C26.1013 8.12569 25.6556 8.00401 25.2011 8H14.7989C14.3444 8.00401 13.8987 8.12569 13.5052 8.35318C13.1117 8.58067 12.7839 8.90621 12.5536 9.29808L7.35252 18.3057C7.12158 18.7057 7 19.1594 7 19.6213C7 20.0832 7.12158 20.5369 7.35252 20.9369L12.5536 29.9094C12.7839 30.3013 13.1117 30.6268 13.5052 30.8543C13.8987 31.0818 14.3444 31.2035 14.7989 31.2075H25.2011C25.6556 31.2035 26.1013 31.0818 26.4948 30.8543C26.8883 30.6268 27.2161 30.3013 27.4464 29.9094L32.6475 20.9018C32.8784 20.5018 33 20.0481 33 19.5862C33 19.1243 32.8784 18.6706 32.6475 18.2706L27.4464 9.29808ZM24.3854 19.6038C24.3854 20.4711 24.1282 21.319 23.6463 22.0402C23.1644 22.7613 22.4795 23.3234 21.6782 23.6553C20.8769 23.9873 19.9951 24.0741 19.1445 23.9049C18.2938 23.7357 17.5124 23.318 16.8991 22.7047C16.2857 22.0914 15.8681 21.31 15.6989 20.4593C15.5297 19.6086 15.6165 18.7269 15.9484 17.9255C16.2803 17.1242 16.8424 16.4393 17.5636 15.9574C18.2848 15.4756 19.1327 15.2184 20 15.2184C21.1631 15.2184 22.2785 15.6804 23.1009 16.5028C23.9234 17.3252 24.3854 18.4407 24.3854 19.6038Z" fill="#999999"/>
</svg>
