<svg width="16" height="16" viewBox="0 0 16 16" fill="none" xmlns="http://www.w3.org/2000/svg">
    <g clip-path="url(#clip0_1123_1384)">
        <path d="M8 0C6.41775 0 4.87103 0.469192 3.55544 1.34824C2.23984 2.22729 1.21446 3.47672 0.608964 4.93853C0.00346249 6.40034 -0.154964 8.00887 0.153718 9.56072C0.462399 11.1126 1.22433 12.538 2.34315 13.6569C3.46197 14.7757 4.88743 15.5376 6.43928 15.8463C7.99113 16.155 9.59966 15.9965 11.0615 15.391C12.5233 14.7855 13.7727 13.7602 14.6518 12.4446C15.5308 11.129 16 9.58225 16 8C15.9977 5.87897 15.1541 3.84547 13.6543 2.34568C12.1545 0.845886 10.121 0.00229405 8 0ZM8 14.6667C6.68146 14.6667 5.39253 14.2757 4.2962 13.5431C3.19987 12.8106 2.34539 11.7694 1.8408 10.5512C1.33622 9.33305 1.2042 7.99261 1.46143 6.6994C1.71867 5.40619 2.3536 4.21831 3.28595 3.28596C4.2183 2.35361 5.40619 1.71867 6.6994 1.46143C7.9926 1.2042 9.33305 1.33622 10.5512 1.8408C11.7694 2.34539 12.8106 3.19987 13.5431 4.2962C14.2757 5.39253 14.6667 6.68146 14.6667 8C14.6647 9.76752 13.9617 11.4621 12.7119 12.7119C11.4621 13.9617 9.76751 14.6647 8 14.6667ZM11.3333 8C11.3333 8.17681 11.2631 8.34638 11.1381 8.47141C11.013 8.59643 10.8435 8.66667 10.6667 8.66667H8.66667C8 8.66667 8.66667 8.66667 8.18359 8.66667C7.70052 8.66667 8.17681 8.66667 8 8.66667C7.82319 8.66667 8 8.66667 7.65234 8.66667C7.19526 8.13807 7.65234 8 7.65234 8.66667H7.33333H5.33333C5.15652 8.66667 4.98695 8.59643 4.86193 8.47141C4.7369 8.34638 4.66667 8.17681 4.66667 8C4.66667 7.82319 4.7369 7.65362 4.86193 7.5286C4.98695 7.40357 5.15652 7.33333 5.33333 7.33333H7.33333C7.83333 7.33333 7.71875 7.33333 7.33333 7.33333C6.96094 7.33333 6.83334 7.33333 7.33333 7.33333H8.66667H10.6667C10.8435 7.33333 11.013 7.40357 11.1381 7.5286C11.2631 7.65362 11.3333 7.82319 11.3333 8Z"
              fill="white"/>
    </g>
    <defs>
        <clipPath id="clip0_1123_1384">
            <rect width="16" height="16" fill="white"/>
        </clipPath>
    </defs>
</svg>
